<?xml version="1.0" encoding="UTF-8"?>
<svg viewBox="0 0 18 18" version="1.1" xmlns="http://www.w3.org/2000/svg" xmlns:xlink="http://www.w3.org/1999/xlink">
    <!-- Generator: Sketch 60.1 (88133) - https://sketch.com -->
    <title>EmployeeProfile_icon</title>
    <desc>Created with Sketch.</desc>
    <g id="VD2_&gt;1200" stroke="none" stroke-width="1" fill="none" fill-rule="evenodd">
        <g id="2.0.0_Counter_Zero_State" transform="translate(-1129.000000, -19.000000)" fill="#FFFFFF" fill-rule="nonzero">
            <g id="header_bar">
                <g id="Header">
                    <g id="user" transform="translate(1108.000000, 0.000000)">
                        <g id="EmployeeProfile_icon" transform="translate(21.000000, 19.000000)">
                            <path d="M9,2.76605505 C11.0229358,2.76605505 12.6330275,4.37614679 12.6330275,6.39908257 C12.6330275,8.38073394 11.0229358,9.99082569 9,9.99082569 C6.97706422,9.99082569 5.36697248,8.38073394 5.36697248,6.39908257 C5.36697248,4.37614679 7.01834862,2.76605505 9,2.76605505 Z M9,3.59174312 C7.47247706,3.59174312 6.23394495,4.83027523 6.23394495,6.39908257 C6.23394495,7.9266055 7.47247706,9.16513761 9,9.16513761 C10.5275229,9.16513761 11.766055,7.9266055 11.766055,6.39908257 C11.766055,4.83027523 10.5275229,3.59174312 9,3.59174312 Z" id="Shape"></path>
                            <path d="M9,0 C13.9541284,0 18,4.04587156 18,9 C18,13.9541284 13.9541284,18 9,18 C4.04587156,18 0,13.9541284 0,9 C0,4.04587156 4.04587156,0 9,0 Z M7.30733945,10.1972477 L10.6926606,10.1972477 C13.0045872,10.1972477 14.9449541,11.8486239 15.3990826,14.0366972 C16.5137615,12.6330275 17.1330275,10.8990826 17.1330275,9 C17.1330275,4.5 13.5,0.866972477 9,0.866972477 C4.5,0.866972477 0.866972477,4.5 0.866972477,9 C0.866972477,10.8990826 1.52752294,12.6330275 2.60091743,14.0366972 C3.05504587,11.8486239 4.99541284,10.1972477 7.30733945,10.1972477 Z M14.6559633,14.8623853 C14.5733945,12.7568807 12.7981651,11.0642202 10.6926606,11.0642202 L7.30733945,11.0642202 C5.20183486,11.0642202 3.4266055,12.7568807 3.3440367,14.8623853 C4.83027523,16.266055 6.81192661,17.1330275 9,17.1330275 C11.1880734,17.1330275 13.1697248,16.266055 14.6559633,14.8623853 Z" id="Shape"></path>
                        </g>
                    </g>
                </g>
            </g>
        </g>
    </g>
</svg>
